<svg width="60" height="60" viewBox="0 0 60 60" fill="none" xmlns="http://www.w3.org/2000/svg">
<mask id="mask0_2_45" style="mask-type:alpha" maskUnits="userSpaceOnUse" x="0" y="0" width="60" height="60">
<path d="M18.8693 60C41.5119 60 53.8943 36.9187 53.8943 16.9034C53.8943 16.2478 53.8834 15.5951 53.8595 14.9455C56.2631 12.8074 58.3522 10.1393 60 7.10206C57.7943 8.3084 55.4207 9.12049 52.9308 9.48667C55.4723 7.61146 57.4235 4.64511 58.344 1.10888C55.9656 2.84382 53.3316 4.10479 50.5272 4.78558C48.2808 1.84145 45.0828 0 41.5416 0C34.7436 0 29.2309 6.78334 29.2309 15.1448C29.2309 16.3334 29.3389 17.4895 29.5501 18.5985C19.319 17.9651 10.2469 11.9378 4.17529 2.77294C3.11809 5.01136 2.5085 7.61154 2.5085 10.386C2.5085 15.641 4.68176 20.2802 7.98654 22.9941C5.96691 22.9174 4.06969 22.2352 2.41145 21.0997C2.40964 21.1633 2.40963 21.2252 2.40963 21.2932C2.40963 28.6287 6.65287 34.7533 12.2855 36.1411C11.2511 36.4881 10.1628 36.6742 9.03955 36.6742C8.24756 36.6742 7.47594 36.5783 6.72595 36.401C8.29313 42.4193 12.8376 46.7989 18.2255 46.9213C14.0122 50.9847 8.70472 53.4048 2.93634 53.4048C1.94394 53.4048 0.96355 53.3354 0 53.1952C5.44805 57.4919 11.9171 59.999 18.8699 59.999" fill="#1DA1F2"/>
</mask>
<g mask="url(#mask0_2_45)">
<rect x="-21.7448" y="-20.8262" width="103.546" height="102.006" fill="#00B8B0"/>
</g>
</svg>
